# xmcd
#
# Track frame offsets:
# 150
# 15224
# 29114
# 42730
# 54985
# 69050
# 81855
# 94000
# 112920
# 125701
# 136972
# 149632
#
# Disc length: 2146 seconds
#
#
# Revision: 0
# Processed by: cddbd v1.5.1PL0 Copyright (c) Steve Scherf et al.
# Submitted via: FreeRIP 2.931 
#
DISCID=a308600c
DTITLE=Django Reinhardt - Mon ami Hugues
DYEAR=2002
DGENRE=Jazz
TTITLE0=Nuages
TTITLE1=Parfum
TTITLE2=Improvisation
TTITLE3=Saint-Louis blues
TTITLE4=You rascal you
TTITLE5=Tea for two
TTITLE6=Rythme futur
TTITLE7=Stormy weather
TTITLE8=Dark town strutter's ball
TTITLE9=Naguine
TTITLE10=Please be kind
TTITLE11=I'll see you in my dream
EXTD=
EXTT0=
EXTT1=
EXTT2=
EXTT3=
EXTT4=
EXTT5=
EXTT6=
EXTT7=
EXTT8=
EXTT9=
EXTT10=
EXTT11=
PLAYORDER=
